<svg xmlns="http://www.w3.org/2000/svg" xmlns:xlink="http://www.w3.org/1999/xlink" width="512" height="512" version="1.0" xml:space="preserve" style="shape-rendering:geometricPrecision;text-rendering:geometricPrecision;image-rendering:optimizeQuality;fill-rule:evenodd;clip-rule:evenodd" viewBox="0 0 1210700 1210703"><defs><style type="text/css">.fil1{fill:none}.fil0{fill:#1046a8}</style></defs><g id="Layer_x0020_1"><metadata id="CorelCorpID_0Corel-Layer"/><g id="_1930444269488"><g><path d="M605351 0l-506728 292556 221169 127694 285559 -164865 285554 164865 221172 -127694 -506726 -292556z" class="fil0"/><path d="M605351 309341l-238831 137888 238831 137888 238826 -137888 -238826 -137888z" class="fil0"/></g><g><path d="M628714 625583l0 275779 238829 -137888 0 -275776 -238829 137885z" class="fil0"/><path d="M581986 625583l0 275779 -238829 -137888 0 -275776 238829 137885z" class="fil0"/><path d="M914271 790453l-285557 164865 0 255385 506729 -292556 0 -585120 -221172 127692 0 329734z" class="fil0"/><path d="M296429 790453l285557 164865 0 255385 -506726 -292556 0 -585120 221169 127692 0 329734z" class="fil0"/></g></g><rect width="1210700" height="1210700" y="3" class="fil1"/></g></svg>