<svg xmlns="http://www.w3.org/2000/svg" viewBox="0 0 19.94 19.94"><defs><style>.cls-1{fill:#142533}.cls-2{fill:#fff}</style></defs><title>Ресурс 2</title><g id="Слой_2" data-name="Слой 2"><g id="Слой_1-2" data-name="Слой 1"><path d="M16.7,0H7.59V12.29H19.89V3.18A3.18,3.18,0,0,0,16.72,0Zm-12,0H3.18A3.18,3.18,0,0,0,0,3.17s0,0,0,0V4.75H4.75ZM0,7.59H4.75v4.75H0ZM15.18,19.89h1.57a3.18,3.18,0,0,0,3.18-3.17s0,0,0,0V15.18H15.18Zm-7.59-4.7h4.75v4.75H7.59ZM0,15.18v1.57a3.18,3.18,0,0,0,3.17,3.18H4.75V15.18Z" class="cls-1"/><path d="M16.7,0H7.59V12.29H19.89V3.18A3.18,3.18,0,0,0,16.72,0Zm-12,0H3.18A3.18,3.18,0,0,0,0,3.17s0,0,0,0V4.75H4.75ZM0,7.59H4.75v4.75H0ZM15.18,19.89h1.57a3.18,3.18,0,0,0,3.18-3.17s0,0,0,0V15.18H15.18Zm-7.59-4.7h4.75v4.75H7.59ZM0,15.18v1.57a3.18,3.18,0,0,0,3.17,3.18H4.75V15.18Z" class="cls-1"/><path d="M16.7,0H7.59V12.29H19.89V3.18A3.18,3.18,0,0,0,16.72,0Zm-12,0H3.18A3.18,3.18,0,0,0,0,3.17s0,0,0,0V4.75H4.75ZM0,7.59H4.75v4.75H0ZM15.18,19.89h1.57a3.18,3.18,0,0,0,3.18-3.17s0,0,0,0V15.18H15.18Zm-7.59-4.7h4.75v4.75H7.59ZM0,15.18v1.57a3.18,3.18,0,0,0,3.17,3.18H4.75V15.18Z" class="cls-1"/><rect width="2.84" height="19.93" x="4.75" class="cls-2"/><rect width="4.75" height="2.84" y="4.75" class="cls-2"/><rect width="4.75" height="2.84" y="12.34" class="cls-2"/><rect width="12.34" height="2.89" x="7.59" y="12.29" class="cls-2"/><rect width="2.84" height="4.75" x="12.34" y="15.18" class="cls-2"/></g></g></svg>